<svg version="1.2" xmlns="http://www.w3.org/2000/svg" viewBox="0 0 16 15" width="16" height="15">
	<title>телефон</title>
	<style>
		.s0 { fill: #7eb252 } 
	</style>
	<path id="телефон" fill-rule="evenodd" class="s0" d="m2.8 0.2c1.1 0 1.4 0.5 1.9 1q0.8 0.8 1.6 1.6c0.3 0.3 0.4 0.5 0.6 0.9 0 0.1 0.1 0.4 0 0.5-0.1 0.5-0.4 0.8-0.7 1.1q-0.3 0.2-0.5 0.5c-0.1 0.1-0.5 0.4-0.5 0.6 0 0 0.1 0.2 0.1 0.3q0.3 0.3 0.5 0.5c0.1 0.3 0.4 0.4 0.5 0.7 0.4 0.5 1 1 1.6 1.4 0 0.1 0.1 0.2 0.2 0.3q0.3 0.2 0.6 0.4c0.2 0.1 0.3 0.2 0.4 0.3 0.2-0.3 0.5-0.5 0.7-0.7 0.4-0.4 0.7-0.9 1.4-1.1 0.3-0.1 0.6 0 0.7 0.1 0.6 0.3 1 0.9 1.5 1.3q0.6 0.6 1.1 1.2c0.2 0.1 0.5 0.3 0.6 0.5 0 0.2 0.1 0.4 0.1 0.5 0 0.2 0 0.6 0 0.7-0.2 0.4-0.7 0.8-1 1.1-0.3 0.3-0.5 0.6-0.9 0.8-0.3 0.2-0.7 0.2-1 0.3-0.5 0.1-1.3 0.1-1.8 0q-0.2 0-0.3-0.1c-0.4-0.1-0.7-0.1-1-0.3q-0.8-0.3-1.4-0.6c-0.3-0.2-0.5-0.4-0.8-0.5-2.1-1.2-4-3.2-5.2-5.3-0.2-0.3-0.3-0.5-0.5-0.7-0.2-0.3-0.3-0.7-0.4-1-0.5-1.2-0.8-3.1-0.2-4.5 0.2-0.3 0.5-0.5 0.8-0.7q0.3-0.4 0.7-0.8c0.1-0.1 0.3-0.2 0.4-0.2 0 0 0.2 0 0.2-0.1zm0.1 0.8c0 0.1-0.1 0.1-0.2 0.1q-0.4 0.5-0.8 0.9c-0.2 0.1-0.4 0.3-0.5 0.5-0.7 1.6 0.1 3.6 0.7 4.7q0.8 1.3 1.7 2.5c0.1 0.1 0.2 0.2 0.3 0.3q0.2 0.4 0.6 0.6c0 0.1 0.1 0.2 0.1 0.2 0.3 0.3 0.5 0.5 0.8 0.7 0.3 0.3 0.6 0.5 0.9 0.8 0.7 0.4 1.3 0.8 2 1.1 0.9 0.5 2.4 1.1 3.8 0.8 0.2-0.1 0.4-0.1 0.6-0.2 0.2-0.1 0.4-0.3 0.5-0.5q0.5-0.4 0.9-0.8 0.1-0.1 0.1-0.2c0-0.7-0.3-0.7-0.7-1.1q-0.1-0.2-0.3-0.3-0.5-0.6-1.1-1.1c-0.2-0.2-0.5-0.7-0.8-0.7-0.2-0.1-0.5 0.3-0.6 0.4q-0.6 0.5-1.1 1.1c-0.1 0.1-0.3 0.3-0.5 0.4-0.1-0.1-0.3-0.1-0.4-0.1-0.2-0.1-0.5-0.3-0.7-0.4-1-0.8-2.1-1.8-2.9-2.8-0.4-0.5-0.9-1-1.1-1.8 0.3-0.2 0.5-0.5 0.7-0.7 0.4-0.3 0.7-0.7 1.1-1.1q0 0 0 0c0.1-0.1 0.1-0.3 0.1-0.5 0 0-0.1-0.1-0.1-0.1-0.1-0.2-0.3-0.4-0.5-0.5q-0.7-0.7-1.5-1.4c-0.3-0.3-0.5-0.8-1.1-0.8z"/>
</svg>