<svg version="1.2" xmlns="http://www.w3.org/2000/svg" viewBox="0 0 88 88" width="88" height="88">
	<title>new_vector_shape_done</title>
	<style>
		.s0 { fill: #a4c58c } 
	</style>
	<path id="new_vector_shape_done" fill-rule="evenodd" class="s0" d="m57.6 0.2q0.5 0 1 0c0.1 0.2 0.1 0.1 0.3 0.2 0.3 0.2 0.5 0.7 0.7 0.9 0.1 5.8-1.5 9.6-3.9 12.8-0.5 0.7-1 1.5-1.6 2-0.9 0.6-1.8 1.3-2.8 1.9-0.4 0.3-1 0.3-1.2 0.7-0.3 0.4-0.3 0.8-0.5 1.2-0.8 1.4-1.3 2.8-2.1 4.3-1.5 3.1-3.2 6.6-4.3 10q0.1 0 0.2 0c0.7-1 1.9-1.9 2.9-2.7 0.8-0.5 1.4-1.3 2.1-1.9 1.8-1.3 3.7-2.5 5.7-3.8 1.3-0.8 2.4-2.1 4.5-2.1 0.4 0.6 0.9 0.7 1 1.7-0.6 0.9-0.7 1.9-1.1 2.9-1.3 2.5-2.3 5.4-3.5 8.1q0.2 0 0.3 0c0.4-0.8 2.1-1.8 2.9-2.4 2.1-1.6 4-3.6 6.2-5.2 0.7-0.6 2.8-1.9 3.1-2.7 0.2-0.4-0.3-1.8-0.1-2.7 0.4-1.6 0.8-3.1 1.6-4.3 1.4-2.2 3.6-3.8 6.3-4.6 3.9-1.2 8.5 1.4 9.9 3.3 0.8 1.1 1.7 2.4 2.2 3.7 2.2 6.5-3.2 11.7-7.7 12.9-1.7 0.5-3.5-0.1-5.1-0.2-0.7 0.9-2.5 1.6-3 2.6 1.7 0 3.5 0.6 4.9 0.9 3.8 1.1 9 1.9 10.9 4.8 0.5 1 0.3 2.9 0.3 4.4 0 5 0.5 7.1-3.1 8.8 0.1 4.3-1.2 8.2-2.5 11.2-3.9 9.3-11 18.1-21.4 20.8q-8.7 0-17.4 0-8 0-16 0c-1.3-0.3-2.7-0.7-3.9-1.3-8.4-4.2-14.7-11.5-18.1-20.6-0.8-2.2-1.2-4.6-1.7-7.1q-0.1-1.5-0.2-3-0.4-0.2-0.8-0.4c-0.7-0.5-1.5-1.2-2-1.9-0.8-1.3-0.4-5.5-0.4-7.5q0-1.3 0-2.6c0.5-1.4 1.7-2.1 2.8-2.8 3.4-2.2 8-2.8 12.7-3.9 1.6-0.4 3.3-0.3 5-0.7 0.6-0.2 1.5 0.1 1.8-0.4-0.9-1-1.2-2.7-1.7-4.1-1.2-3.1-1.8-6.5-2.8-10q-0.1-0.9-0.2-1.8c-0.5-2-0.9-3.8 1.9-3.7 0.5 0.4 1.4 0.3 2.1 0.6 1.8 0.6 3.7 1.3 5.3 2.1 6.2 3.2 10.4 8.1 11.9 16q0.4 0 0.7 0c2.7-4.7 0.4-11.7-1.3-15.6-6.6-0.2-11.3-3.6-14-7.8-0.9-1.3-2.3-3-2.3-5.1 0.3-0.3 0.4-0.6 0.7-0.9 0.5-0.4 1.5-0.3 2.4-0.3 1.7 0.1 3.6 0.4 5 0.8 4.8 1.4 8.4 3.2 10.1 7.6 0.3 0.9 0.4 1.9 0.6 2.8q0 0.5 0 1c0.5 1.4 1.4 2.8 1.9 4.2 0.3 0.7 0.6 3.2 1 3.5 0.1-0.6 0.4-0.9 0.6-1.3 0.4-0.8 0.5-1.6 1-2.5 0.5-1 1.3-2.1 1.7-3.2q0-1.1 0-2.2c0.5-2.1 0.5-4.1 1.2-5.9 1.2-3.1 3.2-5.9 5.8-7.7 0.6-0.4 1.4-0.9 2-1.2 0.5-0.2 1.1-0.2 1.5-0.6zm-1.5 4.2c-0.6 0.8-1.7 1.2-2.3 2-1.6 2.1-3.3 4.8-3.4 8.4q0.1 0 0.2 0c0.7-0.8 1.8-1.2 2.4-2.1 1.6-2.1 3.3-4.8 3.3-8.3q-0.1 0-0.2 0zm-18.5 11.4c-0.2-4.9-6.5-7.1-11.3-7.6q0 0 0 0.1 0 0-0.1 0 0 0.1 0 0.2c0.3 0.2 0.4 0.6 0.6 0.9 0.5 0.7 1.1 1.3 1.6 2 1.4 1.9 5.9 4.2 9.2 4.4zm36.9 2.2c0.1 1 0.9 1.9 1.3 2.7 1.5 2.3 2.9 4 5.2 5.5 0.5 0.4 2.5 1.8 2.9 1.4 1-1.1 0.8-4 0.3-5.4-0.9-2.7-2.2-3.8-5.1-4.6-0.6-0.1-1.8-0.4-2.6-0.2-0.6 0.2-1.3 0.5-2 0.6zm-53.5 1.6c0 1.9 0.8 4.7 1.3 6.3 1.6 5.2 3 10.1 6.7 13.2 0.6 0.5 1.1 1.4 1.8 1.8 0.4 0.2 0.9 0.1 1.4 0.4 0.5 0.2 0.9 0.8 1.5 0.9q0-0.1 0-0.2c-0.6-0.8-0.9-2-1.4-3-1.2-2.2-2.7-4.4-4.1-6.4-0.9-1.2-2.9-2.8-3-4.7 0.7-0.7 0.8-1.1 2.1-1.1 2.6 2.6 4.8 5.8 6.7 9 0.5 0.7 1.7 3.6 2.2 3.9q0-1.5 0-2.9c-0.3-0.5-0.1-1.1-0.2-1.7-0.4-1.6-0.7-3.3-1.4-4.7-2-4.2-5.1-6.9-9.3-9.1-1.2-0.6-2.7-1.6-4.3-1.7zm60.6 10.5c-1-0.2-1.8-0.9-2.5-1.4-2-1.4-3.7-2.9-5-4.8-0.5-0.7-1.7-3.5-2.4-3.6-0.3 1-0.8 1.9-1.1 3.2-0.2 0.8 0 1.9 0.2 2.4 0.7 2.9 1.8 4.2 4.5 5.2 0.8 0.3 2.1 0.7 3.3 0.4 1.1-0.3 2-0.8 3-1.1q0-0.1 0-0.3zm-27.2-0.8c-1 0.9-2.4 1.6-3.6 2.4-2.8 2-5.6 4.9-7.6 7.7-1.1 1.6-2.3 3.4-2.3 6.1q0 0 0.1 0 0 0 0 0.1c7.6-1.5 8.7-4.9 11.4-11.2 0.7-1.6 1.7-3.4 2.1-5.1q-0.1 0-0.1 0zm-12 20.9c1.8 0.1 4 0.3 5.5 0 0.7-0.2 1.6 0.1 2.2-0.1 0.2-0.2 0.5-0.6 0.7-0.8 1.2-0.9 2.3-1.9 3.5-2.8 3.4-2.5 6.5-5.3 9.9-7.8 0.4-0.3 1.5-1.1 1.8-1.4 0.2-0.3 0.2-0.7 0.6-0.9 0.3-0.2 0.7-0.2 1-0.4 0.9-0.6 1.6-1.5 2.5-2.2 0.5-0.3 1.3-0.7 1.5-1.3-0.9-0.4-2.3-2.2-2.8-3.1-1.5 0.8-2.6 2.3-4 3.3-4.1 3-7.8 6.5-11.9 9.5-1.7 1.3-3 3-4.8 4.1-1.8 1.2-3.7 1.5-5.9 2.3 0.2 0.5 0.2 1 0.2 1.6zm-19.2-11.5c-0.5 0.3-1.1 0.1-1.8 0.2-1.3 0.3-2.8 0.3-4.3 0.6-3.3 0.8-6.8 1.3-9.7 2.4-1.2 0.4-3.5 0.8-3.9 1.9-0.4 0.8 2.8 2.5 4 2.2 2.3-0.7 5.1-1 7.7-1.6q0.5 0 1 0c1.7-0.4 3.9-0.4 5.6-0.8q0.6 0 1.1 0c1.2-0.3 2.7-0.3 3.8-0.6 0.7-0.1 1.2 0.1 1.6-0.3-1.3-0.7-3.1-2.7-3.8-4q-0.7 0-1.3 0zm45.1 0.7c-0.6 0.6-1.3 1-1.9 1.5-0.6 0.4-1.2 1.1-1.8 1.5-0.4 0.3-0.9 0.5-1.2 1q0.6 0 1.1 0c0.8 0.5 3.8 0.3 5 0.6 2.2 0.5 4.6 0.5 6.8 1.2 1.2 0.3 2.7 0.8 3.8 1 1.1 0.3 4.4-1.5 4.5-2.4q-0.3-0.4-0.7-0.8c-1.4-0.9-3.1-1-4.8-1.5-3.3-1.1-7.1-1.6-10.8-2.1zm-8.4 6.7c-0.5 0.6-1.2 1-1.8 1.4-0.5 0.3-0.9 0.9-1.3 1.2-0.5 0.3-1.2 0.6-1.5 1.2q1.1 0 2.1 0c0.8-0.5 3.9-0.2 5.2-0.4 1.1-0.3 2.5-0.1 3.8-0.4 2.2-0.5 4.7-0.6 6.9-1.1q0 0 0-0.1-0.1 0-0.3-0.1c-0.8-0.5-2.3-0.2-3.3-0.5-2.2-0.5-5-0.4-7.3-1-0.9-0.1-1.8 0.1-2.5-0.2zm-37.8 0.6c-0.4 0.3-1.1 0.1-1.7 0.2-1.9 0.4-4.4 0.8-6.4 0.8q0 0.1 0 0.2 3.3 0.5 6.6 1c0.5-0.8 1.9-1.4 2.3-2.2q-0.4 0-0.8 0zm8.7 0.6c-0.3 0.2-0.7 0.1-1.2 0.2-1 0.3-2.3 0.6-3.3 1-2.3 1-4.2 2.7-5.2 5-0.3 0.7-0.1 1.3-0.3 2.1-0.2 0.8-0.5 2.4-0.2 3.4 0.2 0.9 0.3 2 0.5 2.8 0.5 1.4 0.7 2.7 1.2 3.9 0.2 0.5 0.2 1 0.6 1.2 0.5-1.4 1.7-2.7 2.5-3.9 2.4-3.4 4.9-6.8 8.2-9.2 0.9-0.6 2-1.2 3-1.6 0.7-0.3 1.3-0.3 1.8-0.7q0.5-0.5 0.9-1.1c0.1-1.1-0.3-2.7-1.3-2.8-0.8 0.7-2.7 1.1-3.8 1.7-2.3 1.2-4.7 3-6.2 5.1-1 1.4-0.9 3.6-3.2 3.7-0.6-0.7-1.1-0.7-1.1-2.1 0.5-0.5 0.6-1.5 1-2.1 0.5-0.8 1.1-1.6 1.6-2.4 0.6-0.7 2.3-2.2 3.1-2.8 0.5-0.4 1.6-0.7 1.9-1.4q-0.2 0-0.5 0zm-27.4 0.6c0 1.4-0.2 3.1 0.1 4.3 2 1.2 4.2 1.9 6.6 2.7 1.2 0.4 2.5 0.5 3.6 0.8 0.5 0.1 3.6 0.5 3.6 0.5 0.4-0.4 0.2-1 0.3-1.7 0.3-0.9 0.7-1.8 0.9-2.7q0 0-0.1 0 0 0 0-0.1c-1.4 0-2.9-0.4-4.1-0.7q-0.8-0.1-1.6-0.2c-2.1-0.5-4.3-0.8-6.2-1.5-1-0.4-2.1-1.2-3.1-1.4zm81 0c-0.3 0.3-0.7 0.3-1.2 0.6-2 1-4.5 1.5-6.9 2.1-0.6 0.2-0.9 0.1-1.5 0.2-2 0.6-4.5 0.7-6.6 1.2q-1.4 0.1-2.8 0.2c-1.5 0.3-3.4 0.3-4.9 0.6q-0.9 0-1.9 0c-0.8 0.2-2.1 0.1-3 0.3q-0.9 0-1.8 0c-0.8 0.2-2.1-0.1-3 0.1-2.6 0.6-7 0.2-10 0.2-0.9 1.1-2.3 1.2-3.6 1.9-0.8 0.4-1.4 0.9-2.1 1.4-0.4 0.3-1.1 0.6-1.4 1.2q1.4 0 2.8 0c0.6 0.4 2.1-0.1 2.9 0.1 0.9 0.1 2.2 0.1 3.2 0.1q2.9 0 5.8 0c0.8 0 2.2-0.1 3-0.2 1.6-0.4 3.4 0.1 4.8-0.2 1-0.2 2.1 0 2.9-0.2q0.9 0 1.7 0c1.5-0.4 3.4-0.3 4.8-0.6 1.4-0.3 2.7-0.1 4.1-0.4 2.5-0.6 5.3-0.9 7.6-1.6 0.5-0.1 0.8 0 1.3-0.2 1.5-0.4 3.1-1 4.5-1.7 0.6-0.3 1.2-0.4 1.4-1 0.3-0.5 0.1-3.3 0.1-4.1q-0.1 0-0.2 0zm-77.7 9.2c-0.3 1.1 0.3 3.1 0.6 4.1 0.4 1.4 0.5 2.5 1 3.8 0.7 1.9 1.7 3.8 2.7 5.5 3.6 6.4 9 11.8 16.7 14.1q9.1 0 18.3 0 7.1 0 14.3 0c8.5-2.6 14.1-8.7 17.8-16.1 1.6-3.2 3-6.8 3.3-11.3q0 0-0.1 0 0-0.1 0-0.1c-2.7 1.1-6 1.4-9 2.1-1.2 0.3-2.2 0.1-3.4 0.4-2.5 0.6-5.5 0.4-8.1 1q-0.8 0-1.6 0c-1.4 0.3-3.3 0.3-4.8 0.4q-1.2 0-2.5 0c-1.7 0.4-4.4 0.2-6.4 0.2q-4.7-0.1-9.3-0.1c-0.8-0.2-2 0.1-2.8-0.1-0.8-0.2-1.7-0.2-2.6-0.2-0.5 1-1.4 1.7-2 2.6-1 1.4-1.7 2.7-2.6 4.1-0.3 0.6-0.8 1.1-1.1 1.7-0.8 1.3-0.9 2.9-3 2.9-1.9-1.9-2.9-5.7-3.9-8.7-0.3-0.8-0.3-3.3-0.7-3.9q0 0 0-0.1c-2 0-4.6-0.6-6.3-1.1-1.6-0.5-3.1-0.6-4.5-1.2zm63.4 5.6q0.5 0 1 0c0.1 0.2 0.1 0.1 0.3 0.2 0.3 0.2 0.5 0.7 0.7 0.9 0.1 2-0.9 4.1-1.5 5.6-2.1 4.9-4.1 8.6-8.7 10.9-1.2 0.6-4 1.7-6.2 1.2-2.1-0.5-4.1-0.9-5.8-1.8-0.6-0.3-1.3-0.9-1.9-1.1q-1.1 0-2.1 0c-2.8-0.7-8.2-0.6-8.2-3.8 0.7-0.7 0.8-1.1 2.1-1.1 1 1.1 6 2.1 8.3 1.6 0.5-1.4 3-2.9 4.2-3.8 3.8-2.7 8.2-4.8 12.7-6.8 1.3-0.6 2.7-1 4-1.6 0.4-0.2 0.8-0.1 1.1-0.4zm-2.1 4.2c-0.8 0.7-2.3 0.8-3.3 1.3-2.8 1.4-5.7 2.7-8.3 4.3-1 0.7-2.5 1.2-3.2 2.2q0.2 0 0.5 0c0.4-0.3 1-0.3 1.5-0.4 1.2-0.4 2.2-0.9 3.6-0.8 0.3 0.3 0.6 0.6 0.8 0.9 0.1 0.7 0 0.9-0.2 1.5-1.5 0.9-3.6 1.4-5.5 1.9q0 0.1 0 0.2c0.7 0 1.4 0.2 2 0.4 1.2 0.3 2.9-0.1 3.6-0.4 3.6-1.3 5.3-3.4 6.9-6.6 0.5-1 1-2.1 1.4-3.2 0.2-0.3 0.4-1.1 0.3-1.3q0 0 0 0 0 0-0.1 0z"/>
</svg>