<svg version="1.2" xmlns="http://www.w3.org/2000/svg" viewBox="0 0 101 73" width="101" height="73">
	<title>new_vector_shape_done</title>
	<style>
		.s0 { fill: #a4c58c } 
	</style>
	<path id="new_vector_shape_done" fill-rule="evenodd" class="s0" d="m25.2 0.7c5-0.1 10.1 0.1 14.2 1.1 2.1 0.5 3.9 0.5 5.7 1.2 1.4 0.4 2.8 1 4 1.7 0.6 0.3 1 1 1.8 1.2 0.3-0.5 0.8-0.7 1.3-1 1.8-1.1 4-1.9 6.3-2.5 0.9-0.3 1.5-0.2 2.4-0.4 1.8-0.5 4.2-0.6 6.1-1q0.8 0 1.6 0c1.2-0.3 2.8 0.1 4.3-0.2 0.9-0.2 2.6-0.2 3.5 0 1.4 0.3 3.1-0.1 4.3 0.2q0.8 0 1.5 0c1 0.2 2.2 0.1 3.4 0.4 2.5 0.6 5.2 0.9 7.5 1.8 2.7 0.9 5.4 2 6.8 4.1 0.9 1.3 0.7 3.6 0.7 5.7q0 6 0 11.9 0 14.8 0 29.5c0 5.7 0.1 11.6-0.1 17.2-0.5 0.4-0.8 1-1.6 1.2-0.7 0.2-1.4-0.2-1.8-0.3-1.2-0.4-2.5-0.4-3.6-0.6-1.3-0.3-2.7-0.2-3.8-0.4q-0.8 0-1.5 0c-0.9-0.2-2 0-3-0.2-1.9-0.4-4.4-0.3-6.5-0.3-2.2 0-4.8-0.4-6.8 0-0.9 0.2-2-0.1-2.8 0.1q-1.2 0-2.5 0c-1.1 0.2-2.7 0.1-3.8 0.4q-1.7 0.1-3.4 0.2c-2 0.4-4.2 0.3-6.3 0.8-0.7 0.1-2 0.6-2.9 0.3-2.5-0.6-5.5-0.5-8.1-1.1-1.4-0.3-2.9-0.1-4.2-0.4q-2.1-0.1-4.2-0.2-0.8 0-1.6 0c-1.3-0.3-3.8-0.3-5.1-0.1-0.7 0.1-1.9-0.2-2.6 0q-3.4 0-6.8 0.1c-1 0.2-2.2-0.1-3.4 0.2-2.6 0.6-5.7 0.4-8.2 1-1.7 0.4-3.9 1-4.9-0.4-0.6-1-0.3-3.4-0.3-4.8q0-6.1 0-12.2 0-23.1 0-46.1c0.4-0.3 0.4-0.9 0.6-1.3 0.4-0.5 1-1.2 1.5-1.6 2.9-2.2 6.4-3.1 10.5-4.1 2.7-0.7 5.7-0.4 8.5-1 1-0.2 2.6 0.4 3.3-0.1zm-1.7 4.2c-0.4 0.2-1.1 0-1.7 0.1-1.1 0.3-2.4 0-3.7 0.3-4.8 1.1-10.1 1.2-13.1 4.1q0 21.4 0 42.8 0 5.8 0 11.6c0 0.8-0.1 4 0 4.3 0.1 0 0.1 0 0.3 0.1 0.7-0.5 1.9-0.2 2.9-0.4 1.5-0.4 3.5-0.3 5-0.6q1 0 1.9 0c1.1-0.3 2.5 0.1 3.8-0.2 2-0.4 4.6-0.2 6.9-0.2 8.3 0 15.6 0.7 22.7 1.6 0.4-1.3 0.1-4.1 0.1-5.6q0-6.2 0-12.3 0-20.5 0-40.9c-0.1-0.1-0.1-0.2-0.1-0.4-6-3.9-15.1-4.2-25-4.3zm29.3 63.5c1.8-0.2 4-0.4 5.7-0.8 1.3-0.3 2.8-0.1 4.1-0.4q0.8 0 1.7 0c1.4-0.3 3.4-0.1 4.9-0.4q3.9 0 7.8 0c6.9 0 13.4 0.6 19.4 1.4q0-29.5 0-58.9c-0.4-0.2-0.6-0.7-1-0.9-1-0.5-2-0.7-3.2-1.2-4.7-1.7-10.7-2.3-17-2.3-4.4 0-8.9 0-12.5 1-0.7 0.2-1.1 0-1.8 0.2-2.9 0.8-6.1 1.4-8.1 3.3q0 29.5 0 59zm-37.9-45.9q8.6 0 17.2 0c3.2 0 6.1-0.8 6.1 2.6-0.5 0.5-0.6 1.2-1.4 1.5-1.2 0.4-3.9 0.1-5.4 0.1q-5.9 0-11.9 0c-3.3 0-6.2 0.7-6.2-2.8 0.4-0.3 0.5-0.9 0.9-1.1 0.3-0.2 0.5-0.2 0.7-0.3zm50 0q8.6 0 17.2 0c2 0 5.2-0.5 5.7 1 1.1 1.1-0.2 3.1-1.6 3.1-0.6 0.4-4 0.1-5 0.1q-6.6 0-13.1 0c-2 0-4.3 0.2-4.5-1.6-1-1.1 0.8-2.2 1.3-2.6zm-50 12.5q8.6 0 17.2 0c3.2 0 6.1-0.8 6.1 2.6-0.5 0.5-0.6 1.2-1.4 1.5-1.2 0.4-3.9 0.1-5.4 0.1q-5.9 0-11.9 0c-3.3 0-6.2 0.7-6.2-2.8 0.3-0.3 0.5-0.8 0.8-1 0.3-0.2 0.6-0.2 0.8-0.4zm50.1 0q8.6 0 17.2 0c3 0 6-0.6 6 2.4-0.5 0.6-0.6 1.4-1.4 1.7-1 0.4-3.7 0.1-5 0.1q-6 0-12 0c-2.3 0-6 0.5-6.2-1.6-0.4-0.4-0.1-0.9 0-1.5 0.2-0.1 0.3-0.5 0.5-0.6 0.2-0.3 0.7-0.3 0.9-0.5zm-50.1 12.5q7.9 0 15.7 0 3 0 6 0c0.8 0.2 1 0.9 1.6 1.4 0 1.5-0.4 2.3-1.4 2.7-1.2 0.4-4.1 0.1-5.7 0.1q-5.6 0-11.3 0c-1.4 0-3.9 0.3-5.1-0.1-0.7-0.3-0.9-0.9-1.4-1.4 0-2.1 0.6-1.8 1.6-2.7zm50.1 0q8.6 0 17.2 0c3 0 6-0.6 6 2.4-0.5 0.6-0.6 1.4-1.4 1.7-1.1 0.4-3.8 0.1-5.2 0.1q-5.9 0-11.8 0c-2.3 0-6 0.5-6.2-1.6-0.4-0.4-0.1-0.9 0-1.5 0.2-0.1 0.2-0.4 0.4-0.5 0.2-0.3 0.7-0.4 1-0.6z"/>
</svg>