<svg version="1.2" xmlns="http://www.w3.org/2000/svg" viewBox="0 0 86 72" width="86" height="72">
	<title>new_vector_shape_done</title>
	<style>
		.s0 { fill: #a4c58c } 
	</style>
	<path id="new_vector_shape_done" fill-rule="evenodd" class="s0" d="m42.5 0.1c1.4-0.1 2 0.6 2.9 1 1.5 0.8 3.1 1.5 4.5 2.3 4 2.1 8.1 3.9 12.1 5.9 1.6 0.8 3.2 1.6 4.7 2.4 0.5 0.2 1.1 0.7 1.6 0.9q7.9 0 15.8 0c0.3 0.2 0.6 0.3 0.8 0.6 0.5 0.7 0.3 2.3 0.3 3.4q0 4.3 0 8.6 0 16.7 0 33.5 0 4.6 0 9.3c0 1.5 0.2 3-0.7 3.6-0.8 0.7-3.3 0.3-4.7 0.3q-6.1 0-12.3 0-23.9 0-47.8 0-7 0-13.9 0c-1.6 0-4.2 0.4-4.8-0.6-0.5-0.9-0.2-3.3-0.2-4.5q0-5.7 0-11.4 0-20.9 0-41.8c0.4-0.3 0.7-0.7 1.1-1q7.9 0 15.8 0c0.4-0.2 0.8-0.5 1.2-0.7 1.1-0.6 2.2-1.1 3.3-1.7 3.3-1.7 6.7-3.3 10-5 2.4-1.2 4.8-2.3 7.2-3.6 1-0.5 2.3-0.8 3.1-1.5zm0.3 3.3c-0.7 0.8-2.9 1.5-4 2-3.1 1.7-6.4 3.3-9.6 4.9-0.7 0.4-4.1 1.8-4.4 2.3q18.2 0 36.4 0 0-0.1 0-0.2c-1.2-0.2-3.5-1.7-4.6-2.3-3.3-1.7-6.5-3.1-9.8-4.8-1-0.5-2.8-1.8-4-1.9zm-38.9 12.3q0 26.5 0 53.1 39.1 0 78.2 0 0-26.6 0-53.1-39.1 0-78.2 0zm56.7 9.4c6-0.1 9 2.4 11 6.3 0.8 1.6 1.6 4.5 0.9 6.9-0.4 1.4-0.9 2.7-1.6 3.8-0.3 0.5-1.1 1-1.3 1.5q0 9 0 17.9c-0.4 0.4-0.7 0.7-1.1 1.1-0.6 0-1 0-1.4-0.2q-0.5-0.6-1-1.1-1.4-1.4-2.9-2.8c-0.5-0.5-0.8-1.3-1.6-1.4q-2.6 2.6-5.2 5.3c-0.4 0.2-0.8 0.2-1.4 0.2-0.1-0.2-0.2-0.1-0.4-0.2-0.3-0.2-0.4-0.7-0.7-0.9q0-8.9 0-17.9c-2.1-1.5-4-7-2.7-10.7 0.9-2.4 2.3-4.5 4.2-5.9 0.9-0.6 2.1-1.2 3.2-1.5 0.6-0.3 1.5-0.1 2-0.4zm-46.2 3.1q14.5 0 29.1 0c0.2 0.2 0.7 0.4 0.9 0.7 0.4 0.8 0 1.8-0.5 2.1-0.8 0.7-5.3 0.3-6.9 0.3q-8.9 0-17.9 0c-2.7 0-5.8 0.8-5.8-2 0.2-0.2 0.2-0.4 0.3-0.5 0.2-0.3 0.6-0.4 0.8-0.6zm46.4 0q-1.1 0.3-2.2 0.6c-1.9 0.9-3.5 2.5-4.3 4.6-1.3 3.5 0.5 6.5 2.2 8.3q0.2 0.3 0.5 0.6c0.4 0.3 1.3 0.6 2 0.9 0.8 0.4 2.4 0.9 3.7 0.6 2.9-0.7 4.8-1.9 6.1-4.3 2.6-5.1-1.2-9.9-5.1-11.1-0.8-0.3-1.9-0.2-2.9-0.2zm-46.4 6.2q9.8 0 19.7 0c1.1 0.4 1.4 2.2 0.4 2.9-0.7 0.5-3.9 0.3-5.2 0.3q-5.7 0-11.5 0c-2.4 0-4.5 0.4-4.5-2.1 0.4-0.4 0.7-0.7 1.1-1.1zm0 6.3q9.8 0 19.7 0c0.2 0.2 0.2 0 0.4 0.2 0.3 0.2 0.4 0.6 0.7 0.9 0 0.9-0.2 1.4-0.7 1.7-0.7 0.6-3.9 0.3-5.2 0.3q-5.7 0-11.5 0c-2.4 0-4.5 0.5-4.5-2 0.3-0.3 0.4-0.7 0.7-0.9 0.2-0.2 0.2 0 0.4-0.2zm42.7 5.3q0 5.5 0 11.1 0.1 0 0.2 0c0.6-1 1.8-1.9 2.7-2.7 0.4-0.4 0.7-1 1.3-1.2q0.4 0 0.9 0c1 0.9 2 1.7 2.9 2.6 0.4 0.4 0.7 1.1 1.3 1.3q0-5.6 0-11.1c-1.6 0.2-3.5 1.5-5.8 0.9-1.1-0.2-2.6-0.8-3.5-0.9zm-38.9 9.7c-0.7 0-1.4-0.5-1.8-0.4-0.2 0.3-0.3 0.8-0.6 1-1.2 0.7-2-0.3-2.5-0.9-0.1-2.9 1.1-5.1 2.4-6.8 0.9-1.3 2.4-0.4 2.9 0.7 0.7-0.2 1.1-0.3 1.8-0.1 0.2 0.3 0.6 0.5 0.7 0.9q0 2.3 0 4.6 0.1 0 0.2 0 0 0 0-0.1c0.5-0.7 0.4-1.6 1.1-2.1 0.3-0.2 0.6-0.3 1.2-0.3 0.5 0.5 0.8 0.5 1.1 1.2q0.8-0.5 1.5-1c0.5-0.2 1-0.2 1.5-0.4 0.2-0.6 0.5-1.1 1.3-1.2 0.2-0.1 0.6 0 0.8 0.1 0.5 0.2 0.9 0.6 0.9 1.3 0.5 1-1.2 2.9-2.1 3.1-0.5 0.2-0.8-0.2-1.3 0-0.7 0.4-1.3 1.2-2 1.6-0.5 0.3-1.3 0.2-1.8 0.5-0.9 0.9-1 2.1-2.9 2-0.1-0.1-0.3-0.1-0.5-0.3-0.9-0.7-1.7-1.9-1.9-3.4z"/>
</svg>